# xmcd
#
# Track frame offsets:
# 150
# 24477
# 43990
# 56698
# 75245
# 94496
# 107446
# 120375
# 133694
# 160736
# 179868
# 198411
# 224213
# 239890
# 267134
# 286443
#
# Disc length: 4123 seconds
#
# Revision: 1
# Processed by: cddbd v1.5.2PL0 Copyright (c) Steve Scherf et al.
# Submitted via: TinyPlayer 2.8
#
DISCID=f4101910
DTITLE=Gary Moore - Legacy [Disc 2 of 2]
DYEAR=2012
DGENRE=Blues Rock
TTITLE0=Over the Hills and Far Away
TTITLE1=After the War
TTITLE2=Rockin' Every Night
TTITLE3=Rockin' and Rollin [Live]
TTITLE4=Wild Frontier
TTITLE5=Since I Met You Baby
TTITLE6=Too Tired
TTITLE7=Walking by Myself
TTITLE8=Nuclear Attack [Live]
TTITLE9=Shapes of Things to Come
TTITLE10=Take a Little Time
TTITLE11=Thunder Rising
TTITLE12=Dark Days in Paradise
TTITLE13=Burning in Our Hearts
TTITLE14=Empty Rooms
TTITLE15=Parisienne Walkways [Live]
EXTD=Location:  - UPC: 5014797671690 - Catalogue number: MCDLX169 - Label: Music Club Deluxe - ASIN: B0090VQYPK - Release Date: 2012 10 01 - Discogs: a208220,r4605728 - MUSICBRAINZ_ALBUMID: ad29392f-170b-4511-a74d-21ca7d103f66 - AMG: MN0000050034,MW0002422827;
EXTT0=
EXTT1=
EXTT2=
EXTT3=
EXTT4=
EXTT5=
EXTT6=
EXTT7=
EXTT8=
EXTT9=
EXTT10=
EXTT11=
EXTT12=
EXTT13=
EXTT14=
EXTT15=
PLAYORDER=
